<svg width="160" height="61" viewBox="0 0 160 61" fill="none" xmlns="http://www.w3.org/2000/svg">
<path d="M52.192 8.8C56.248 8.8 59.488 9.676 61.912 11.428C64.36 13.18 65.584 15.892 65.584 19.564V23.236C65.584 26.98 64.372 29.716 61.948 31.444C59.548 33.148 56.296 34 52.192 34H40.708C40.444 34 40.216 33.904 40.024 33.712C39.832 33.52 39.736 33.292 39.736 33.028V9.772C39.736 9.508 39.832 9.28 40.024 9.088C40.216 8.896 40.444 8.8 40.708 8.8H52.192ZM52.372 26.98C53.5 26.98 54.388 26.716 55.036 26.188C55.708 25.636 56.044 24.868 56.044 23.884V18.916C56.044 17.932 55.708 17.176 55.036 16.648C54.388 16.096 53.5 15.82 52.372 15.82H49.096V26.98H52.372ZM94.5499 26.98C94.8139 26.98 95.0419 27.076 95.2339 27.268C95.4259 27.46 95.5219 27.688 95.5219 27.952V33.028C95.5219 33.292 95.4259 33.52 95.2339 33.712C95.0419 33.904 94.8139 34 94.5499 34H71.7979C71.5339 34 71.3059 33.904 71.1139 33.712C70.9219 33.52 70.8259 33.292 70.8259 33.028V9.772C70.8259 9.508 70.9219 9.28 71.1139 9.088C71.3059 8.896 71.5339 8.8 71.7979 8.8H94.1899C94.4539 8.8 94.6819 8.896 94.8739 9.088C95.0659 9.28 95.1619 9.508 95.1619 9.772V14.848C95.1619 15.112 95.0659 15.34 94.8739 15.532C94.6819 15.724 94.4539 15.82 94.1899 15.82H80.1859V18.088H92.2099C92.4739 18.088 92.7019 18.184 92.8939 18.376C93.0859 18.568 93.1819 18.796 93.1819 19.06V23.74C93.1819 24.004 93.0859 24.232 92.8939 24.424C92.7019 24.616 92.4739 24.712 92.2099 24.712H80.1859V26.98H94.5499ZM126.828 8.8C127.044 8.8 127.224 8.884 127.368 9.052C127.536 9.196 127.62 9.376 127.62 9.592L127.584 9.844L119.304 32.812C119.184 33.148 118.992 33.436 118.728 33.676C118.464 33.892 118.116 34 117.684 34H109.296C108.864 34 108.516 33.892 108.252 33.676C107.988 33.436 107.808 33.184 107.712 32.92L99.3599 9.844L99.3239 9.592C99.3239 9.376 99.3959 9.196 99.5399 9.052C99.7079 8.884 99.8999 8.8 100.116 8.8H107.712C108.144 8.8 108.492 8.932 108.756 9.196C109.044 9.436 109.236 9.7 109.332 9.988L113.472 23.776L117.612 9.988C117.708 9.676 117.888 9.4 118.152 9.16C118.416 8.92 118.776 8.8 119.232 8.8H126.828ZM146.038 17.944C148.678 18.232 150.79 18.7 152.374 19.348C153.982 19.996 155.146 20.848 155.866 21.904C156.586 22.96 156.946 24.28 156.946 25.864C156.946 27.592 156.382 29.104 155.254 30.4C154.15 31.672 152.614 32.656 150.646 33.352C148.678 34.024 146.434 34.36 143.914 34.36C141.106 34.36 138.73 34.012 136.786 33.316C134.842 32.62 133.39 31.696 132.43 30.544C131.47 29.368 130.99 28.084 130.99 26.692C130.99 26.452 131.062 26.26 131.206 26.116C131.374 25.972 131.578 25.9 131.818 25.9H139.198C139.702 25.9 140.11 26.056 140.422 26.368C140.83 26.752 141.286 27.016 141.79 27.16C142.294 27.28 143.002 27.34 143.914 27.34C146.194 27.34 147.334 26.992 147.334 26.296C147.334 26.008 147.178 25.768 146.866 25.576C146.578 25.36 146.05 25.18 145.282 25.036C144.538 24.868 143.434 24.7 141.97 24.532C138.682 24.148 136.162 23.332 134.41 22.084C132.658 20.812 131.782 19.024 131.782 16.72C131.782 15.088 132.274 13.648 133.258 12.4C134.242 11.152 135.634 10.18 137.434 9.484C139.258 8.788 141.37 8.44 143.77 8.44C146.266 8.44 148.45 8.836 150.322 9.628C152.194 10.396 153.622 11.356 154.606 12.508C155.59 13.66 156.082 14.788 156.082 15.892C156.082 16.132 155.998 16.324 155.83 16.468C155.686 16.612 155.482 16.684 155.218 16.684H147.478C147.07 16.684 146.698 16.54 146.362 16.252C146.098 16.012 145.786 15.82 145.426 15.676C145.066 15.532 144.514 15.46 143.77 15.46C142.162 15.46 141.358 15.796 141.358 16.468C141.358 16.828 141.67 17.116 142.294 17.332C142.918 17.524 144.166 17.728 146.038 17.944Z" fill="white"/>
<path d="M85.3594 48.125C85.3594 48.9688 85.1719 49.7344 84.7969 50.4219C84.4219 51.1094 83.8125 51.5859 82.9688 51.8516C82.8438 51.8828 82.5859 51.9141 82.1953 51.9453C81.8047 51.9609 81.3828 51.9766 80.9297 51.9922C80.4766 51.9922 80.0469 51.9922 79.6406 51.9922C79.2344 51.9922 78.9688 51.9922 78.8438 51.9922C77.7344 51.9922 76.625 51.9844 75.5156 51.9688C74.4219 51.9531 73.3281 51.9297 72.2344 51.8984L72.1172 52.9062C71.3203 52.9062 70.5156 52.9219 69.7031 52.9531C68.8906 52.9844 68.0781 53.0234 67.2656 53.0703C67.2812 51.8672 67.2891 50.6719 67.2891 49.4844C67.3047 48.2969 67.3125 47.1016 67.3125 45.8984C67.3125 44.1797 67.2812 42.4766 67.2188 40.7891C67.1719 39.0859 67.125 37.3828 67.0781 35.6797L71.0625 35.8438C71.0469 36.0469 71.0391 36.2578 71.0391 36.4766C71.0391 36.6797 71.0391 36.8906 71.0391 37.1094C71.0391 38.1406 71.0547 39.1719 71.0859 40.2031C71.1328 41.2188 71.1562 42.2422 71.1562 43.2734C71.4062 42.8203 71.75 42.3906 72.1875 41.9844C72.625 41.5781 73.0859 41.3125 73.5703 41.1875C74.0078 41.0781 74.5078 40.9766 75.0703 40.8828C75.6328 40.7891 76.2031 40.7109 76.7812 40.6484C77.375 40.5703 77.9609 40.5156 78.5391 40.4844C79.1172 40.4531 79.6328 40.4375 80.0859 40.4375C80.4141 40.4375 80.7734 40.4844 81.1641 40.5781C81.5703 40.6562 81.9688 40.7734 82.3594 40.9297C82.75 41.0859 83.1016 41.2812 83.4141 41.5156C83.7422 41.7344 84 41.9922 84.1875 42.2891C84.3438 42.5547 84.4922 42.9531 84.6328 43.4844C84.7891 44 84.9141 44.5547 85.0078 45.1484C85.1172 45.7266 85.2031 46.2891 85.2656 46.8359C85.3281 47.3828 85.3594 47.8125 85.3594 48.125ZM80.4375 46.6484C80.4375 46.4922 80.4141 46.2891 80.3672 46.0391C80.3359 45.7891 80.2812 45.5391 80.2031 45.2891C80.1406 45.0234 80.0625 44.7812 79.9688 44.5625C79.875 44.3281 79.7656 44.1562 79.6406 44.0469C79.5781 43.9844 79.4766 43.9453 79.3359 43.9297C79.1953 43.8984 79.0469 43.875 78.8906 43.8594C78.75 43.8438 78.6016 43.8359 78.4453 43.8359C78.3047 43.8359 78.1953 43.8359 78.1172 43.8359C77.9766 43.8359 77.7578 43.8438 77.4609 43.8594C77.1641 43.875 76.8281 43.8984 76.4531 43.9297C76.0781 43.9453 75.6797 43.9766 75.2578 44.0234C74.8516 44.0547 74.4688 44.0938 74.1094 44.1406C73.75 44.1875 73.4375 44.2422 73.1719 44.3047C72.9062 44.3516 72.7266 44.4062 72.6328 44.4688L72.9141 48.3828C73.3203 48.3828 73.8359 48.3828 74.4609 48.3828C75.1016 48.3672 75.7578 48.3438 76.4297 48.3125C77.1172 48.2656 77.7734 48.2031 78.3984 48.125C79.0391 48.0469 79.5469 47.9297 79.9219 47.7734C80.1875 47.6641 80.3359 47.5156 80.3672 47.3281C80.4141 47.1406 80.4375 46.9141 80.4375 46.6484ZM92.3906 34.9766C92.2656 36.4922 92.1406 38 92.0156 39.5C91.9062 41 91.8125 42.5078 91.7344 44.0234C91.6562 45.3984 91.5703 46.7656 91.4766 48.125C91.3984 49.4688 91.3203 50.8281 91.2422 52.2031L87.6562 52.3906C87.6562 50.9688 87.6562 49.5625 87.6562 48.1719C87.6719 46.7656 87.6641 45.3516 87.6328 43.9297C87.6016 42.5078 87.5391 41.1016 87.4453 39.7109C87.3516 38.3047 87.2578 36.8906 87.1641 35.4688L92.3906 34.9766ZM111.727 43.7188C111.727 43.8438 111.727 43.9688 111.727 44.0938C111.727 44.2031 111.719 44.3203 111.703 44.4453C111.688 44.6641 111.648 45.0234 111.586 45.5234C111.523 46.0234 111.438 46.5469 111.328 47.0938C111.219 47.625 111.086 48.1172 110.93 48.5703C110.773 49.0234 110.602 49.3125 110.414 49.4375C110.32 49.5 110 49.5547 109.453 49.6016C108.922 49.6484 108.266 49.6953 107.484 49.7422C106.719 49.7891 105.883 49.8281 104.977 49.8594C104.07 49.8906 103.203 49.9219 102.375 49.9531C101.562 49.9688 100.844 49.9844 100.219 50C99.6094 50.0156 99.2031 50.0234 99 50.0234C98.9062 50.0234 98.7422 50.0234 98.5078 50.0234C98.2891 50.0234 98.0547 50.0234 97.8047 50.0234C97.5547 50.0078 97.3203 49.9922 97.1016 49.9766C96.8828 49.9609 96.7266 49.9375 96.6328 49.9062C96.4141 49.8281 96.1953 49.7031 95.9766 49.5312C95.7578 49.3438 95.5547 49.1406 95.3672 48.9219C95.1797 48.6875 95.0078 48.4531 94.8516 48.2188C94.7109 47.9688 94.6094 47.7344 94.5469 47.5156C94.5 47.3438 94.4609 47.0859 94.4297 46.7422C94.3984 46.3828 94.375 46.0156 94.3594 45.6406C94.3438 45.25 94.3281 44.875 94.3125 44.5156C94.3125 44.1562 94.3125 43.8828 94.3125 43.6953C94.3125 43.3984 94.3203 42.9922 94.3359 42.4766C94.3516 41.9453 94.3984 41.4062 94.4766 40.8594C94.5547 40.3125 94.6641 39.8047 94.8047 39.3359C94.9609 38.8516 95.1797 38.5156 95.4609 38.3281C95.5859 38.25 95.8203 38.1797 96.1641 38.1172C96.5078 38.0547 96.9141 38 97.3828 37.9531C97.8516 37.9062 98.3516 37.875 98.8828 37.8594C99.4141 37.8281 99.9297 37.8125 100.43 37.8125C100.945 37.7969 101.422 37.7891 101.859 37.7891C102.297 37.7891 102.648 37.7969 102.914 37.8125C103.148 37.8281 103.484 37.8438 103.922 37.8594C104.359 37.8594 104.844 37.8672 105.375 37.8828C105.922 37.8984 106.484 37.9297 107.062 37.9766C107.641 38.0078 108.18 38.0547 108.68 38.1172C109.18 38.1797 109.617 38.2656 109.992 38.375C110.383 38.4688 110.641 38.5859 110.766 38.7266C110.969 38.9453 111.133 39.2734 111.258 39.7109C111.383 40.1484 111.477 40.6172 111.539 41.1172C111.617 41.6016 111.664 42.0859 111.68 42.5703C111.711 43.0391 111.727 43.4219 111.727 43.7188ZM106.758 44.2109C106.758 44.0234 106.75 43.8047 106.734 43.5547C106.719 43.3047 106.695 43.0547 106.664 42.8047C106.633 42.5391 106.586 42.2891 106.523 42.0547C106.461 41.8047 106.383 41.6016 106.289 41.4453C106.164 41.2422 105.922 41.0859 105.562 40.9766C105.203 40.8672 104.805 40.7891 104.367 40.7422C103.945 40.6797 103.523 40.6406 103.102 40.625C102.695 40.6094 102.391 40.6016 102.188 40.6016C102.078 40.6016 101.883 40.6094 101.602 40.625C101.32 40.625 101.023 40.6328 100.711 40.6484C100.414 40.6641 100.133 40.6953 99.8672 40.7422C99.6016 40.7734 99.4297 40.8125 99.3516 40.8594C99.2109 40.9531 99.1016 41.1016 99.0234 41.3047C98.9453 41.4922 98.8828 41.7031 98.8359 41.9375C98.8047 42.1719 98.7812 42.4062 98.7656 42.6406C98.7656 42.8594 98.7656 43.0391 98.7656 43.1797C98.7656 43.3203 98.7734 43.5781 98.7891 43.9531C98.8203 44.3125 98.8516 44.7031 98.8828 45.125C98.9297 45.5312 98.9844 45.9062 99.0469 46.25C99.1094 46.5938 99.1875 46.8125 99.2812 46.9062C99.3906 47.0312 99.5938 47.1328 99.8906 47.2109C100.203 47.2891 100.531 47.3594 100.875 47.4219C101.234 47.4688 101.578 47.5078 101.906 47.5391C102.234 47.5547 102.469 47.5625 102.609 47.5625C102.859 47.5625 103.156 47.5547 103.5 47.5391C103.844 47.5234 104.188 47.4844 104.531 47.4219C104.891 47.3594 105.227 47.2734 105.539 47.1641C105.852 47.0547 106.102 46.9062 106.289 46.7188C106.398 46.6094 106.484 46.4453 106.547 46.2266C106.609 46.0078 106.656 45.7734 106.688 45.5234C106.719 45.2734 106.734 45.0312 106.734 44.7969C106.75 44.5469 106.758 44.3516 106.758 44.2109ZM129.539 44.7031C129.539 45.3594 129.531 46.0156 129.516 46.6719C129.516 47.3125 129.516 47.9609 129.516 48.6172C129.5 48.9609 129.492 49.3125 129.492 49.6719C129.508 50.0312 129.5 50.3906 129.469 50.75C129.422 51.0938 129.375 51.4609 129.328 51.8516C129.281 52.2266 129.203 52.6016 129.094 52.9766C128.984 53.3516 128.836 53.7031 128.648 54.0312C128.477 54.3594 128.242 54.6406 127.945 54.875C127.867 54.9375 127.711 54.9922 127.477 55.0391C127.242 55.0859 126.969 55.1328 126.656 55.1797C126.344 55.2266 126.008 55.2656 125.648 55.2969C125.289 55.3281 124.945 55.3516 124.617 55.3672C124.289 55.3984 123.992 55.4219 123.727 55.4375C123.461 55.4688 123.273 55.4844 123.164 55.4844C122.18 55.5156 121.203 55.5391 120.234 55.5547C119.281 55.5703 118.312 55.5781 117.328 55.5781H115.828C115.797 55.3125 115.766 55.0391 115.734 54.7578C115.703 54.4766 115.688 54.1953 115.688 53.9141C115.688 53.6016 115.656 53.2812 115.594 52.9531C115.531 52.6094 115.461 52.2734 115.383 51.9453L116.93 51.9688C117.023 51.9688 117.281 51.9688 117.703 51.9688C118.141 51.9531 118.648 51.9453 119.227 51.9453C119.805 51.9297 120.422 51.9141 121.078 51.8984C121.75 51.8672 122.367 51.8281 122.93 51.7812C123.492 51.7344 123.969 51.6797 124.359 51.6172C124.766 51.5547 124.992 51.4844 125.039 51.4062C125.164 51.2031 125.242 50.9766 125.273 50.7266C125.305 50.4609 125.32 50.2109 125.32 49.9766C125.32 49.8516 125.312 49.7266 125.297 49.6016C125.297 49.4609 125.289 49.3281 125.273 49.2031C124.398 49.2656 123.531 49.3203 122.672 49.3672C121.812 49.4141 120.938 49.4375 120.047 49.4375C119.844 49.4375 119.586 49.4375 119.273 49.4375C118.977 49.4375 118.664 49.4297 118.336 49.4141C118.023 49.3984 117.711 49.375 117.398 49.3438C117.102 49.3125 116.859 49.2656 116.672 49.2031C116.359 49.1094 116.039 49.0078 115.711 48.8984C115.398 48.7734 115.102 48.625 114.82 48.4531C114.539 48.2812 114.289 48.0781 114.07 47.8438C113.867 47.5938 113.727 47.2969 113.648 46.9531C113.602 46.7812 113.57 46.5938 113.555 46.3906C113.555 46.1875 113.555 46 113.555 45.8281C113.555 45.3906 113.578 44.8359 113.625 44.1641C113.672 43.4922 113.75 42.8125 113.859 42.125C113.984 41.4219 114.141 40.7656 114.328 40.1562C114.531 39.5312 114.781 39.0625 115.078 38.75C115.25 38.5625 115.523 38.3984 115.898 38.2578C116.289 38.1172 116.727 38 117.211 37.9062C117.695 37.8125 118.203 37.7344 118.734 37.6719C119.281 37.5938 119.812 37.5391 120.328 37.5078C120.844 37.4766 121.312 37.4531 121.734 37.4375C122.172 37.4219 122.516 37.4141 122.766 37.4141C123.641 37.4141 124.516 37.4375 125.391 37.4844L125.555 35.9844L129.492 36.5703C129.508 37.9297 129.516 39.2812 129.516 40.625C129.531 41.9688 129.539 43.3281 129.539 44.7031ZM125.391 44.2578C125.391 43.7578 125.383 43.2734 125.367 42.8047C125.352 42.3203 125.328 41.8281 125.297 41.3281C124.609 41.1719 123.922 41.0469 123.234 40.9531C122.547 40.8594 121.844 40.8125 121.125 40.8125C121 40.8125 120.812 40.8203 120.562 40.8359C120.312 40.8516 120.047 40.8828 119.766 40.9297C119.5 40.9609 119.25 41.0156 119.016 41.0938C118.781 41.1562 118.617 41.2344 118.523 41.3281C118.383 41.4844 118.297 41.6641 118.266 41.8672C118.234 42.0703 118.219 42.2734 118.219 42.4766C118.219 42.6484 118.234 42.9141 118.266 43.2734C118.312 43.6172 118.367 43.9766 118.43 44.3516C118.492 44.7266 118.57 45.0781 118.664 45.4062C118.758 45.7344 118.852 45.9609 118.945 46.0859C119.039 46.2109 119.156 46.3047 119.297 46.3672C119.438 46.4297 119.586 46.4766 119.742 46.5078C119.914 46.5234 120.078 46.5391 120.234 46.5547C120.406 46.5547 120.555 46.5547 120.68 46.5547C120.992 46.5547 121.367 46.5469 121.805 46.5312C122.258 46.5 122.703 46.4531 123.141 46.3906C123.594 46.3281 124.016 46.2422 124.406 46.1328C124.797 46.0078 125.094 45.8438 125.297 45.6406C125.328 45.625 125.352 45.5469 125.367 45.4062C125.383 45.2656 125.391 45.1172 125.391 44.9609C125.391 44.8047 125.391 44.6562 125.391 44.5156C125.391 44.375 125.391 44.2891 125.391 44.2578Z" fill="#12ECA0"/>
<path d="M34.0162 54.8182C33.4815 54.8178 32.9538 54.6967 32.4724 54.4638C31.9908 54.2309 31.5679 53.8921 31.2351 53.4729C30.2053 52.3587 22.2463 44.5262 17.3693 39.7508C17.0318 39.4248 16.762 39.0352 16.5754 38.6042C16.3888 38.1734 16.2891 37.7097 16.2821 37.2401C16.2751 36.7704 16.3609 36.304 16.5346 35.8677C16.7083 35.4313 16.9664 35.0338 17.294 34.6978C17.6217 34.362 18.0125 34.0943 18.4438 33.9103C18.8752 33.7263 19.3386 33.6298 19.8074 33.626C20.2761 33.6221 20.7411 33.7114 21.1753 33.8883C21.6095 34.0655 22.0045 34.3268 22.3375 34.6575C22.3723 34.6916 25.8848 38.1313 29.371 41.5674L30.4634 42.6444V25.9183C30.4634 19.4137 25.2249 14.1218 18.7857 14.1218C12.3465 14.1218 7.10811 19.4137 7.10811 25.9183V51.257C7.10811 52.2014 6.73365 53.1072 6.06715 53.7749C5.40064 54.4427 4.49664 54.8178 3.55404 54.8178C2.61145 54.8178 1.70747 54.4427 1.04096 53.7749C0.374444 53.1072 0 52.2014 0 51.257V25.9183C0 15.4867 8.42721 7 18.7857 7C29.1441 7 37.5714 15.4867 37.5714 25.9183V51.257C37.571 52.2014 37.1964 53.1072 36.5297 53.7751C35.863 54.4429 34.9589 54.818 34.0162 54.8182ZM30.7851 52.7366L30.7866 52.7398L30.7851 52.7366Z" fill="url(#paint0_linear_15_156)"/>
<path d="M18.786 29.3411C21.0292 29.3411 22.8477 27.5191 22.8477 25.2715C22.8477 23.0239 21.0292 21.2019 18.786 21.2019C16.5427 21.2019 14.7241 23.0239 14.7241 25.2715C14.7241 27.5191 16.5427 29.3411 18.786 29.3411Z" fill="url(#paint1_linear_15_156)"/>
<defs>
<linearGradient id="paint0_linear_15_156" x1="18.7857" y1="55.392" x2="18.7857" y2="7.14345" gradientUnits="userSpaceOnUse">
<stop stop-color="#00C0F4"/>
<stop offset="1" stop-color="#12ECA0"/>
</linearGradient>
<linearGradient id="paint1_linear_15_156" x1="18.786" y1="55.379" x2="18.786" y2="7.13712" gradientUnits="userSpaceOnUse">
<stop stop-color="#00C0F4"/>
<stop offset="1" stop-color="#12ECA0"/>
</linearGradient>
</defs>
</svg>
